<svg width="24" height="25" viewBox="0 0 24 25" fill="none" xmlns="http://www.w3.org/2000/svg">
<path fill-rule="evenodd" clip-rule="evenodd" d="M14.2112 14.027C14.2381 14.0014 14.2616 13.9791 14.2777 13.9589C14.7558 13.3402 15.0089 12.5902 15.0089 12.0934C15.0089 12.0027 15.0056 11.8879 14.9968 11.7548C14.9459 11.2 14.7392 10.6739 14.4089 10.2279C13.837 9.46852 12.9464 9.01854 11.9996 9.00916C11.3405 8.99988 10.8468 9.23879 10.5551 9.38L10.5551 9.38L10.5465 9.38415L10.5465 9.38416L10.5465 9.38416C9.60905 9.89039 9.01845 10.8747 9.00907 11.9435C9.00907 15.8621 12.8715 18.9089 17.3057 18.9089C18.4588 18.9089 19.5931 18.7026 20.6712 18.2995C21.0087 18.1776 21.3368 18.0276 21.6556 17.8589C21.7774 17.7933 21.9274 17.8026 22.0493 17.8776C22.218 17.9901 22.2743 18.2151 22.1618 18.3932C20.6993 20.7088 18.5057 22.4525 15.9182 23.3431L15.7964 23.3806C15.5534 23.4582 15.2533 23.5358 14.9341 23.6034C15.2272 23.5509 15.5183 23.4799 15.8057 23.39C10.0309 25.3118 3.73107 22.6119 1.14365 17.0995C0.384295 15.459 -0.00944269 13.659 0.00930673 11.8497C0.00930673 11.6045 0.0266843 11.3568 0.0604632 11.1082C0.024366 11.3418 0.00394861 11.5794 0.000157041 11.8202C0.0995393 5.26288 5.44089 0 11.9996 0C16.6589 0 20.9525 2.24056 22.9399 6.13106C22.9584 6.16813 22.9787 6.20798 23.0003 6.25062C23.3396 6.91967 24.0257 8.27242 23.9993 10.2466C23.9993 12.2902 22.9118 14.1746 21.1493 15.2058C20.2869 15.712 19.3119 15.9839 18.3088 15.9839C18.3086 15.9839 18.3075 15.9839 18.3055 15.984C18.2026 15.9882 15.733 16.0878 14.4089 15.1683C14.1277 14.9714 13.9683 14.737 13.9683 14.4933C13.9683 14.2578 14.1128 14.1205 14.2112 14.027ZM0 11.8309C4.8722e-05 11.8273 0.00010107 11.8238 0.000157041 11.8202L0 11.8309Z" fill="#BCBCBC"/>
</svg>
