<svg width="64" height="64" viewBox="0 0 64 64" fill="none" xmlns="http://www.w3.org/2000/svg">
<path d="M53.8861 45.28C53.1636 45.6625 52.4199 46.0025 51.6549 46.2787C49.2112 47.1924 46.64 47.6599 44.0264 47.6599C33.9754 47.6599 25.2207 40.7539 25.2207 31.8717C25.2419 29.4492 26.5806 27.2181 28.7056 26.0706C19.6109 26.4531 17.2734 35.9303 17.2734 41.4764C17.2734 57.1796 31.7442 58.7733 34.8679 58.7733C36.5466 58.7733 39.0753 58.2846 40.6052 57.7959L40.8815 57.7109C46.7463 55.6922 51.7186 51.7398 55.0335 46.4912C55.2885 46.0875 55.161 45.5775 54.7785 45.3225C54.5023 45.1525 54.1623 45.1312 53.8861 45.28Z" fill="url(#paint0_linear)"/>
<path opacity="0.35" d="M53.8861 45.28C53.1636 45.6625 52.4199 46.0025 51.6549 46.2787C49.2112 47.1924 46.64 47.6599 44.0264 47.6599C33.9754 47.6599 25.2207 40.7539 25.2207 31.8717C25.2419 29.4492 26.5806 27.2181 28.7056 26.0706C19.6109 26.4531 17.2734 35.9303 17.2734 41.4764C17.2734 57.1796 31.7442 58.7733 34.8679 58.7733C36.5466 58.7733 39.0753 58.2846 40.6052 57.7959L40.8815 57.7109C46.7463 55.6922 51.7186 51.7398 55.0335 46.4912C55.2885 46.0875 55.161 45.5775 54.7785 45.3225C54.5023 45.1525 54.1623 45.1312 53.8861 45.28Z" fill="url(#paint1_radial)"/>
<path d="M27.2606 56.0959C25.3694 54.9272 23.7332 53.376 22.437 51.5698C16.8484 43.92 18.5271 33.1891 26.1769 27.6005C26.9843 27.0268 27.8131 26.4956 28.7055 26.0706C29.3643 25.7518 30.4905 25.1994 31.9992 25.2206C34.1454 25.2419 36.1641 26.2618 37.4603 27.983C38.3102 29.1305 38.799 30.5117 38.8202 31.9567C38.8202 31.9142 44.0263 15.0422 21.8207 15.0422C12.4923 15.0422 4.82127 23.9032 4.82127 31.6592C4.77878 35.7603 5.67125 39.8402 7.39244 43.5588C13.2573 56.0534 27.5368 62.1732 40.6264 57.8171C36.1428 59.2196 31.2555 58.6033 27.2606 56.0959Z" fill="url(#paint2_linear)"/>
<path opacity="0.41" d="M27.2606 56.0959C25.3694 54.9272 23.7332 53.376 22.437 51.5698C16.8484 43.92 18.5271 33.1891 26.1769 27.6005C26.9843 27.0268 27.8131 26.4956 28.7055 26.0706C29.3643 25.7518 30.4905 25.1994 31.9992 25.2206C34.1454 25.2419 36.1641 26.2618 37.4603 27.983C38.3102 29.1305 38.799 30.5117 38.8202 31.9567C38.8202 31.9142 44.0263 15.0422 21.8207 15.0422C12.4923 15.0422 4.82127 23.9032 4.82127 31.6592C4.77878 35.7603 5.67125 39.8402 7.39244 43.5588C13.2573 56.0534 27.5368 62.1732 40.6264 57.8171C36.1428 59.2196 31.2555 58.6033 27.2606 56.0959Z" fill="url(#paint3_radial)"/>
<path d="M37.1628 36.4403C36.9928 36.6527 36.4616 36.9715 36.4616 37.6515C36.4616 38.204 36.8228 38.7352 37.4603 39.1814C40.5202 41.3064 46.2788 41.0301 46.3 41.0301C48.5737 41.0301 50.7836 40.4139 52.7386 39.2664C56.7334 36.929 59.1984 32.6579 59.1984 28.0255C59.2621 23.2657 57.4984 20.0995 56.7972 18.6971C52.2923 9.87858 42.5601 4.79999 31.9992 4.79999C17.1247 4.79999 5.01254 16.7421 4.80005 31.6167C4.9063 23.8606 12.6198 17.5921 21.7995 17.5921C22.5432 17.5921 26.7931 17.6558 30.7242 19.7383C34.1879 21.5657 36.0153 23.7544 37.269 25.9431C38.5865 28.2168 38.8202 31.0642 38.8202 32.2116C38.8202 33.3379 38.2465 35.0378 37.1628 36.4403Z" fill="url(#paint4_radial)"/>
<path d="M37.1628 36.4403C36.9928 36.6527 36.4616 36.9715 36.4616 37.6515C36.4616 38.204 36.8228 38.7352 37.4603 39.1814C40.5202 41.3064 46.2788 41.0301 46.3 41.0301C48.5737 41.0301 50.7836 40.4139 52.7386 39.2664C56.7334 36.929 59.1984 32.6579 59.1984 28.0255C59.2621 23.2657 57.4984 20.0995 56.7972 18.6971C52.2923 9.87858 42.5601 4.79999 31.9992 4.79999C17.1247 4.79999 5.01254 16.7421 4.80005 31.6167C4.9063 23.8606 12.6198 17.5921 21.7995 17.5921C22.5432 17.5921 26.7931 17.6558 30.7242 19.7383C34.1879 21.5657 36.0153 23.7544 37.269 25.9431C38.5865 28.2168 38.8202 31.0642 38.8202 32.2116C38.8202 33.3379 38.2465 35.0378 37.1628 36.4403Z" fill="url(#paint5_radial)"/>
<defs>
<linearGradient id="paint0_linear" x1="17.2744" y1="42.4156" x2="55.1582" y2="42.4156" gradientUnits="userSpaceOnUse">
<stop stop-color="#0C59A4"/>
<stop offset="1" stop-color="#114A8B"/>
</linearGradient>
<radialGradient id="paint1_radial" cx="0" cy="0" r="1" gradientUnits="userSpaceOnUse" gradientTransform="translate(38.2024 42.7165) scale(20.2656 19.2502)">
<stop offset="0.72" stop-opacity="0"/>
<stop offset="0.95" stop-opacity="0.53"/>
<stop offset="1"/>
</radialGradient>
<linearGradient id="paint2_linear" x1="37.2629" y1="25.9954" x2="13.5967" y2="51.7735" gradientUnits="userSpaceOnUse">
<stop stop-color="#1B9DE2"/>
<stop offset="0.16" stop-color="#1595DF"/>
<stop offset="0.67" stop-color="#0680D7"/>
<stop offset="1" stop-color="#0078D4"/>
</linearGradient>
<radialGradient id="paint3_radial" cx="0" cy="0" r="1" gradientUnits="userSpaceOnUse" gradientTransform="translate(19.8038 47.0881) rotate(-81.3826) scale(30.4711 24.6224)">
<stop offset="0.76" stop-opacity="0"/>
<stop offset="0.95" stop-opacity="0.5"/>
<stop offset="1"/>
</radialGradient>
<radialGradient id="paint4_radial" cx="0" cy="0" r="1" gradientUnits="userSpaceOnUse" gradientTransform="translate(10.2935 14.8706) rotate(92.2909) scale(43.0408 91.682)">
<stop stop-color="#35C1F1"/>
<stop offset="0.11" stop-color="#34C1ED"/>
<stop offset="0.23" stop-color="#2FC2DF"/>
<stop offset="0.31" stop-color="#2BC3D2"/>
<stop offset="0.67" stop-color="#36C752"/>
</radialGradient>
<radialGradient id="paint5_radial" cx="0" cy="0" r="1" gradientUnits="userSpaceOnUse" gradientTransform="translate(55.8113 21.2482) rotate(73.7366) scale(20.6801 16.8203)">
<stop stop-color="#66EB6E"/>
<stop offset="1" stop-color="#66EB6E" stop-opacity="0"/>
</radialGradient>
</defs>
</svg>
