<svg width="64" height="64" viewBox="0 0 64 64" fill="none" xmlns="http://www.w3.org/2000/svg">
<path d="M48.4558 9.63123C47.1084 11.1998 46.4811 14.7306 47.8471 18.3099C49.2131 21.8892 51.3071 21.1116 52.6123 24.7612C54.335 29.5771 53.5333 36.047 53.5333 36.047C53.5333 36.047 55.6037 42.0443 57.0479 35.674C60.2434 23.7075 48.4558 12.5792 48.4558 9.63123Z" fill="url(#paint0_radial)"/>
<path d="M32.0162 59.3131C45.8134 59.3131 56.99 48.0758 56.99 34.2212C56.99 20.3666 45.8134 9.12924 32.0297 9.12924C18.246 9.12924 7.06938 20.3632 7.06938 34.2189C7.04294 48.0887 18.2325 59.3126 32.0162 59.3126V59.3131Z" fill="url(#paint1_radial)"/>
<path d="M50.7284 49.6928C50.1886 50.0736 49.6223 50.4154 49.0339 50.7156C49.8135 49.5726 50.5328 48.3895 51.1886 47.1712C51.7208 46.5822 52.2086 46.0095 52.6064 45.3906C52.7999 45.0868 53.0171 44.711 53.2489 44.2755C54.6509 41.7495 56.1969 37.6616 56.2408 33.4624V33.1439C56.2481 32.0899 56.1403 31.0381 55.9195 30.0074L55.951 30.2493L55.915 30.0637C55.9358 30.1762 55.9521 30.2887 55.9713 30.4012C56.2582 32.8328 56.054 35.2042 55.0329 36.9527L54.9839 37.027C55.5128 34.3698 55.6905 31.4347 55.1021 28.498C55.1021 28.498 54.8658 27.0701 53.1116 22.7347C52.0989 20.2396 50.3081 18.1934 48.7233 16.7036C47.3337 14.9849 46.0735 13.8344 45.3775 13.0996C43.9249 11.5693 43.3162 10.4233 43.0652 9.67506C42.8486 9.56648 40.0756 6.87331 39.8556 6.77036C38.646 8.64663 34.8395 14.5157 36.6488 19.9999C37.469 22.4849 39.5445 25.0633 41.7161 26.5114C41.8118 26.6206 43.0101 27.9179 43.5783 30.8525C44.1662 33.8821 43.8596 36.2455 42.6478 39.7415C41.2244 42.8077 37.5804 45.8401 34.1683 46.1495C26.873 46.8123 24.2018 42.487 24.2018 42.487C26.8089 43.529 29.6911 43.3112 31.4436 42.2305C33.2102 41.1373 34.2791 40.3272 35.1455 40.6468C35.999 40.9607 36.682 40.0363 36.0687 39.0799C35.597 38.3534 34.9219 37.7816 34.1277 37.4358C33.3334 37.0899 32.455 36.9853 31.6017 37.135C29.8334 37.4219 28.2132 38.8228 25.8969 37.4669C25.7469 37.38 25.6018 37.2849 25.462 37.1823C25.3101 37.081 25.9588 37.3353 25.8069 37.2216C25.3568 36.9769 24.5579 36.443 24.3509 36.2529C24.3172 36.2213 24.7008 36.3755 24.666 36.344C22.5 34.5605 22.77 33.3549 22.8375 32.5988C22.8938 31.994 23.2876 31.2193 23.9486 30.9053C24.2693 31.0797 24.4685 31.2136 24.4685 31.2136L24.2581 30.7872C24.284 30.7759 24.3087 30.7788 24.3346 30.7681C24.5968 30.8946 25.1785 31.2238 25.4823 31.4246C25.8801 31.7059 26.0072 31.9557 26.0072 31.9557C26.0072 31.9557 26.1118 31.8995 26.0342 31.6536C26.0061 31.5535 25.8851 31.2345 25.4913 30.9127H25.5161C25.752 31.047 25.9755 31.2022 26.1839 31.3762C26.2964 30.9723 26.495 30.5503 26.4511 29.7953C26.4241 29.2648 26.4365 29.1275 26.3431 28.9233C26.2587 28.7472 26.3898 28.6786 26.5355 28.8614C26.5106 28.7182 26.4688 28.5785 26.4111 28.4451V28.4316C26.5929 27.7992 30.2509 26.1553 30.5181 25.9629C30.9556 25.6533 31.3224 25.2545 31.5944 24.7927C31.798 24.4686 31.9511 24.0135 31.9882 23.3243C32.0085 22.827 31.7767 22.4956 28.0781 22.108C27.0655 22.0084 26.473 21.2753 26.1355 20.5991C26.0736 20.4528 26.0117 20.3211 25.9481 20.1895C25.8882 20.0353 25.84 19.8767 25.8041 19.7152C26.4089 17.9785 27.4244 16.5084 28.9192 15.4001C29.0008 15.3258 28.594 15.4192 28.675 15.3438C28.7707 15.2572 29.3896 15.0063 29.5077 14.95C29.6506 14.8825 28.8956 14.5618 28.2289 14.6406C27.5498 14.7171 27.4058 14.7981 27.0435 14.9517C27.1937 14.802 27.6719 14.6057 27.56 14.6068C26.8286 14.7193 25.9183 15.1447 25.1408 15.6262C25.1392 15.5423 25.1551 15.459 25.1875 15.3815C24.8252 15.5351 23.9351 16.1579 23.6758 16.6834C23.687 16.5825 23.6921 16.481 23.691 16.3796C23.415 16.6098 23.1661 16.8707 22.9489 17.1571L22.9354 17.1695C20.8335 16.3256 18.9843 16.2693 17.4191 16.6474C17.0759 16.3042 16.9094 16.5551 16.1308 14.8431C16.0779 14.7401 16.1713 14.9444 16.1308 14.8431C16.0025 14.5112 16.2095 15.2859 16.1308 14.8431C14.821 15.8766 13.0972 17.0485 12.2696 17.8755C12.2595 17.9093 13.2351 17.5998 12.2696 17.8755C11.9321 17.9723 11.9546 18.1726 11.9039 19.9853C11.8916 20.1225 11.9039 20.2767 11.8916 20.4005C11.2305 21.2444 10.7804 21.9555 10.61 22.3246C9.75481 23.7974 8.81358 26.094 7.90104 29.7256C8.30389 28.7426 8.78927 27.7956 9.35199 26.8946C8.59248 28.8226 7.85941 31.8499 7.71313 36.5116C7.89665 35.5496 8.13197 34.5982 8.41807 33.6615C8.2386 37.5295 8.90542 41.39 10.372 44.9737C10.8969 46.2576 11.765 48.2064 13.2412 50.3409C17.8855 55.2265 24.4342 58.2646 31.6861 58.2646C39.2576 58.2646 46.0566 54.9526 50.7278 49.6928H50.7284Z" fill="url(#paint2_linear)"/>
<path d="M45.1267 53.2402C54.2897 52.1791 58.3478 42.7364 53.137 42.5508C48.4319 42.3989 40.789 53.7409 45.1267 53.2402Z" fill="url(#paint3_radial)"/>
<path d="M53.7962 40.6223C60.1007 36.953 58.4545 29.0283 58.4545 29.0283C58.4545 29.0283 56.0213 31.8548 54.3689 36.3601C52.7385 40.8237 50.0065 42.8379 53.7962 40.6223Z" fill="url(#paint4_radial)"/>
<path d="M33.783 57.9305C42.5725 60.7345 50.1282 53.8112 45.4699 51.4989C41.2391 49.4139 29.6102 56.605 33.7824 57.9305H33.783Z" fill="url(#paint5_radial)"/>
<path d="M54.4516 43.9876C54.6654 43.6861 54.9545 42.7201 55.21 42.2886C56.7616 39.7839 56.7729 37.7878 56.7729 37.7405C57.7101 33.0586 57.6252 31.1469 57.0485 27.6137C56.5844 24.767 54.5551 20.6881 52.797 18.7246C50.9854 16.6993 52.2625 17.3603 50.5072 15.8824C48.9696 14.1777 47.4793 12.4899 46.6674 11.8114C40.8012 6.90499 40.9334 5.86305 41.0476 5.68415L40.9649 5.77641C40.894 5.50074 40.8451 5.26782 40.8451 5.26782C40.8451 5.26782 37.6383 8.47464 36.9632 13.8193C36.5226 17.3075 37.8284 20.9464 39.7199 23.271C40.7047 24.4759 41.8177 25.57 43.0392 26.5341C44.4682 28.5865 45.2547 31.1193 45.2547 33.8423C45.2547 40.6632 39.7221 46.193 32.8972 46.193C31.9672 46.1935 31.04 46.0893 30.1332 45.8825C26.9129 45.2681 25.0529 43.6433 24.1257 42.5406C23.5941 41.9088 23.3685 41.4481 23.3685 41.4481C26.2535 42.4816 29.4446 42.2655 31.3838 41.1938C33.3389 40.1102 34.5215 39.3062 35.4818 39.623C36.4281 39.938 37.1809 39.0227 36.5058 38.0736C35.8436 37.1256 34.1203 35.7669 31.5616 36.1439C29.6038 36.4291 27.8113 37.8182 25.247 36.4724C25.0819 36.387 24.9214 36.2931 24.766 36.1911C24.5972 36.0915 25.3156 36.343 25.1486 36.2294C24.6495 35.9863 23.7662 35.4569 23.5373 35.269C23.499 35.2375 23.9243 35.3905 23.8861 35.359C21.4883 33.5897 21.7876 32.3941 21.8607 31.6459C21.9209 31.0461 22.3558 30.2776 23.0906 29.966C23.2862 30.0605 23.4782 30.1624 23.6661 30.2715L23.4332 29.8495C23.4613 29.8382 23.4894 29.8411 23.5176 29.8304C23.9514 30.0271 24.3757 30.2444 24.789 30.4813C25.2296 30.7598 25.3697 31.0079 25.3697 31.0079C25.3697 31.0079 25.4855 30.9516 25.4 30.708C25.3685 30.6084 25.2352 30.2917 24.7992 29.9727H24.8262C25.085 30.1047 25.3322 30.2584 25.5649 30.4324C25.6886 30.0318 25.9092 29.6132 25.8602 28.865C25.8304 28.3389 25.8445 28.2022 25.741 27.9985C25.6481 27.8241 25.7927 27.7566 25.9536 27.9367C25.9259 27.7937 25.8797 27.6549 25.8164 27.5237V27.5102C26.0172 26.8835 30.0657 25.2531 30.3605 25.0629C30.8352 24.7648 31.2412 24.3692 31.5515 23.9023C31.7765 23.5804 31.9453 23.1298 31.9875 22.4451C32.0016 22.1368 31.9065 21.8926 30.8342 21.6575C30.1906 21.5168 29.1948 21.3818 27.6594 21.2372C26.5399 21.1382 25.8827 20.4113 25.5103 19.7407C25.4428 19.5961 25.3725 19.465 25.3033 19.3345C25.2372 19.1824 25.184 19.0251 25.1441 18.8642C25.814 17.1104 27.0206 15.6128 28.5917 14.585C28.6817 14.5119 28.2316 14.6036 28.3216 14.5288C28.4268 14.4433 29.1126 14.1952 29.2426 14.1395C29.4001 14.0719 28.5675 13.7546 27.8271 13.8317C27.0755 13.9077 26.9157 13.9881 26.5151 14.1411C26.6839 13.9926 27.211 13.798 27.0867 13.7991C26.2766 13.9116 25.2695 14.3324 24.4087 14.8118C24.4071 14.728 24.4248 14.6451 24.4605 14.5693C24.0594 14.7212 23.0742 15.3384 22.7879 15.8633C22.8001 15.7634 22.8056 15.6629 22.8042 15.5623C22.5022 15.7874 22.2266 16.0459 21.9828 16.333L21.9676 16.3454C19.6441 15.5071 17.5973 15.4509 15.8673 15.8278C15.4881 15.4869 14.8789 14.971 14.0164 13.2736C13.9601 13.1712 13.9264 13.4846 13.8814 13.3861C13.5438 12.6098 13.3441 11.336 13.375 10.4606C13.375 10.4606 12.6819 10.7757 12.1092 12.0955C12.0335 12.2644 11.9525 12.4309 11.8661 12.5946C11.8346 12.6328 11.9376 12.1614 11.9224 12.1872C11.8228 12.356 11.5646 12.5923 11.4515 12.8972C11.3739 13.1223 11.2647 13.25 11.1949 13.533L11.1781 13.5589C11.1724 13.4756 11.1989 13.2168 11.1781 13.2697C10.9088 13.8115 10.6768 14.3711 10.4838 14.9445C10.1744 15.9572 9.81545 17.3412 9.75807 19.1398C9.74457 19.276 9.75807 19.429 9.744 19.5517C9.01262 20.386 8.51416 21.0932 8.32625 21.4589C7.38108 22.9216 6.33859 25.1968 5.32759 28.7986C5.77697 27.8144 6.31438 26.8729 6.93325 25.9856C6.09442 27.8984 5.28315 30.901 5.12 35.5244C5.32383 34.5676 5.5844 33.6238 5.90032 32.6979C5.75573 35.781 6.11467 39.6033 8.06352 43.9184C9.22079 46.4501 11.8847 51.6035 18.394 55.6233C18.394 55.6233 20.6084 57.2717 24.4138 58.5072L25.2706 58.8071C25.1815 58.7711 25.0933 58.7326 25.0062 58.6917C27.5397 59.451 30.1702 59.8378 32.8151 59.84C42.6707 59.8484 45.5777 55.8906 45.5777 55.8906L45.5495 55.9119C45.6883 55.7807 45.8222 55.6445 45.9512 55.5035C44.3951 56.9708 40.8451 57.0698 39.5202 56.9634C41.7829 56.2996 43.2727 55.737 46.1684 54.6275C46.506 54.5015 46.8525 54.3582 47.2081 54.1977L47.5344 54.0469C48.9456 53.3817 50.2726 52.5507 51.4872 51.5715C54.3959 49.2479 55.0288 46.9829 55.3596 45.4898C55.3135 45.6327 55.17 45.9663 55.0687 46.1829C54.3205 47.7852 52.6586 48.7709 50.8549 49.6119C51.7132 48.4854 52.5092 47.3127 53.2392 46.0991C53.8288 45.5157 54.0099 44.6026 54.4521 43.9876H54.4516Z" fill="url(#paint6_radial)"/>
<path d="M50.9111 49.5443C52.097 48.2368 53.1615 46.7414 53.9688 45.0435C56.0448 40.6788 59.2572 33.4213 56.7255 25.8419C54.7283 19.8514 51.9845 16.5759 48.502 13.3758C42.8456 8.17967 41.2658 5.85951 41.2658 4.48001C41.2658 4.48001 34.7341 11.7601 37.5673 19.354C40.4006 26.948 46.201 26.6678 50.039 34.5932C54.555 43.9177 46.3849 54.0929 39.6309 56.9419C40.0444 56.8502 54.6523 53.5449 55.4175 45.1903C55.3978 45.3439 55.0687 47.6545 50.9111 49.5448V49.5443Z" fill="url(#paint7_radial)"/>
<path d="M31.9898 22.4477C32.0123 21.9543 31.7558 21.6229 27.6758 21.2404C25.997 21.0851 25.3545 19.534 25.1582 18.8808C24.5618 20.4314 24.3143 22.0595 24.447 24.0275C24.5371 25.317 25.4035 26.701 25.8181 27.5156C25.8181 27.5156 25.9104 27.3958 25.9531 27.3525C26.7329 26.5406 30.0005 25.3035 30.3077 25.1279C30.6463 24.9119 31.9336 23.9712 31.991 22.4483L31.9898 22.4477Z" fill="url(#paint8_linear)"/>
<path d="M14.0258 13.2831C13.9695 13.1807 13.9358 13.4941 13.8908 13.3956C13.5532 12.6192 13.3518 11.359 13.4002 10.4701C13.4002 10.4701 12.7071 10.7851 12.1343 12.105C12.0274 12.3413 11.9599 12.4729 11.8913 12.6035C11.8598 12.6417 11.9627 12.1703 11.9476 12.1961C11.848 12.3649 11.5897 12.6012 11.4778 12.8926C11.385 13.1312 11.2893 13.2595 11.219 13.5548C11.1965 13.6353 11.2415 13.1993 11.2218 13.2521C9.88619 15.8266 9.63189 19.7266 9.77254 19.5578C12.6125 16.5276 15.8655 15.8086 15.8655 15.8086C15.5195 15.5537 14.7667 14.8167 14.0258 13.2825V13.2831Z" fill="url(#paint9_linear)"/>
<path d="M24.8015 44.9924C20.879 43.3175 16.4188 40.9557 16.5875 35.5891C16.8171 28.5223 23.179 29.9192 23.179 29.9192C22.9387 29.9755 22.2968 30.4346 22.0695 30.9218C21.8293 31.5311 21.3905 32.9066 22.7193 34.348C24.8066 36.6097 18.4323 39.713 28.2699 45.5758C28.5175 45.7108 25.9633 45.4954 24.8021 44.993L24.8015 44.9924Z" fill="url(#paint10_linear)"/>
<path d="M23.4085 41.4708C26.19 42.4385 29.4283 42.2697 31.3704 41.1974C32.67 40.4744 34.3353 39.3166 35.3604 39.6024C34.4726 39.2513 33.8003 39.0876 32.9919 39.0477C32.854 39.0477 32.6892 39.0449 32.5418 39.0297C32.2455 39.0286 31.9495 39.0448 31.6551 39.078C31.1544 39.1242 30.5991 39.4398 30.0945 39.3892C30.0675 39.3892 30.5839 39.1771 30.5445 39.1866C30.2773 39.2429 29.9864 39.2541 29.6798 39.2924C29.4846 39.3149 29.317 39.3385 29.1229 39.3487C23.3281 39.8398 18.4335 36.2094 18.4335 36.2094C18.0171 37.6158 20.2996 40.3895 23.4136 41.4736L23.4085 41.4708Z" fill="url(#paint11_linear)"/>
<path d="M50.9012 49.5805C56.7612 43.8268 59.7261 36.8331 58.4727 28.9893C58.4727 28.9893 58.9734 33.0119 57.0746 37.1262C57.986 33.1093 58.0929 28.119 55.6681 22.9487C52.4348 16.049 47.1154 12.418 45.0845 10.9046C42.007 8.60915 40.7327 6.27324 40.7086 5.79053C39.7893 7.67411 37.0083 14.1283 40.4104 19.6867C43.5969 24.8942 48.6165 26.4379 52.131 31.2172C58.6054 40.0174 50.9017 49.5805 50.9017 49.5805H50.9012Z" fill="url(#paint12_linear)"/>
<path d="M50.0604 34.6102C48.0125 30.3795 45.4583 28.5341 43.0391 26.5341C43.3204 26.9279 43.3896 27.0669 43.5455 27.3217C45.6738 29.5901 48.8114 35.1227 46.5329 42.0675C42.2447 55.1412 25.0922 48.9852 23.2919 47.2558C24.0193 54.8227 36.6818 58.4425 44.9295 53.5361C49.6216 49.0943 53.4174 41.5443 50.0604 34.6102Z" fill="url(#paint13_linear)"/>
<defs>
<radialGradient id="paint0_radial" cx="0" cy="0" r="1" gradientUnits="userSpaceOnUse" gradientTransform="translate(57.8015 21.6218) rotate(2.2605) scale(19.2936 28.4384)">
<stop offset="0.1" stop-color="#FFEA00"/>
<stop offset="0.17" stop-color="#FFDE00"/>
<stop offset="0.28" stop-color="#FFBF00"/>
<stop offset="0.43" stop-color="#FF8E00"/>
<stop offset="0.77" stop-color="#FF272D"/>
<stop offset="0.87" stop-color="#E0255A"/>
<stop offset="0.95" stop-color="#CC2477"/>
<stop offset="1" stop-color="#C42482"/>
</radialGradient>
<radialGradient id="paint1_radial" cx="0" cy="0" r="1" gradientUnits="userSpaceOnUse" gradientTransform="translate(40.2948 13.1086) scale(54.753)">
<stop stop-color="#00CCDA"/>
<stop offset="0.22" stop-color="#0083FF"/>
<stop offset="0.26" stop-color="#007AF9"/>
<stop offset="0.33" stop-color="#005FE7"/>
<stop offset="0.44" stop-color="#2639AD"/>
<stop offset="0.52" stop-color="#401E84"/>
<stop offset="0.57" stop-color="#4A1475"/>
</radialGradient>
<linearGradient id="paint2_linear" x1="35.5382" y1="45.5042" x2="24.7678" y2="10.2725" gradientUnits="userSpaceOnUse">
<stop stop-color="#000F43" stop-opacity="0.4"/>
<stop offset="0.48" stop-color="#001962" stop-opacity="0.17"/>
<stop offset="1" stop-color="#002079" stop-opacity="0"/>
</linearGradient>
<radialGradient id="paint3_radial" cx="0" cy="0" r="1" gradientUnits="userSpaceOnUse" gradientTransform="translate(59.4242 41.2624) rotate(5.61758) scale(18.407)">
<stop stop-color="#FFEA00"/>
<stop offset="0.5" stop-color="#FF272D"/>
<stop offset="1" stop-color="#C42482"/>
</radialGradient>
<radialGradient id="paint4_radial" cx="0" cy="0" r="1" gradientUnits="userSpaceOnUse" gradientTransform="translate(59.4907 23.5349) rotate(5.61758) scale(30.7379)">
<stop stop-color="#FFE900"/>
<stop offset="0.16" stop-color="#FFAF0E"/>
<stop offset="0.32" stop-color="#FF7A1B"/>
<stop offset="0.47" stop-color="#FF4E26"/>
<stop offset="0.62" stop-color="#FF2C2E"/>
<stop offset="0.76" stop-color="#FF1434"/>
<stop offset="0.89" stop-color="#FF0538"/>
<stop offset="1" stop-color="#FF0039"/>
</radialGradient>
<radialGradient id="paint5_radial" cx="0" cy="0" r="1" gradientUnits="userSpaceOnUse" gradientTransform="translate(61.0323 52.3222) rotate(5.61758) scale(28.2053)">
<stop stop-color="#FF272D"/>
<stop offset="0.5" stop-color="#C42482"/>
<stop offset="0.99" stop-color="#620700"/>
</radialGradient>
<radialGradient id="paint6_radial" cx="0" cy="0" r="1" gradientUnits="userSpaceOnUse" gradientTransform="translate(45.3566 26.6489) scale(44.0054)">
<stop offset="0.16" stop-color="#FFEA00"/>
<stop offset="0.23" stop-color="#FFDE00"/>
<stop offset="0.37" stop-color="#FFBF00"/>
<stop offset="0.54" stop-color="#FF8E00"/>
<stop offset="0.76" stop-color="#FF272D"/>
<stop offset="0.8" stop-color="#F92433"/>
<stop offset="0.84" stop-color="#E91C45"/>
<stop offset="0.89" stop-color="#CF0E62"/>
<stop offset="0.94" stop-color="#B5007F"/>
</radialGradient>
<radialGradient id="paint7_radial" cx="0" cy="0" r="1" gradientUnits="userSpaceOnUse" gradientTransform="translate(42.8332 6.24039) scale(50.153)">
<stop offset="0.28" stop-color="#FFEA00"/>
<stop offset="0.4" stop-color="#FFDD00"/>
<stop offset="0.63" stop-color="#FFBA00"/>
<stop offset="0.86" stop-color="#FF9100"/>
<stop offset="0.93" stop-color="#FF6711"/>
<stop offset="0.99" stop-color="#FF4A1D"/>
</radialGradient>
<linearGradient id="paint8_linear" x1="13.5844" y1="25.5893" x2="35.1848" y2="22.2879" gradientUnits="userSpaceOnUse">
<stop stop-color="#C42482" stop-opacity="0.5"/>
<stop offset="0.47" stop-color="#FF272D" stop-opacity="0.5"/>
<stop offset="0.49" stop-color="#FF2C2C" stop-opacity="0.5"/>
<stop offset="0.68" stop-color="#FF7A1A" stop-opacity="0.72"/>
<stop offset="0.83" stop-color="#FFB20D" stop-opacity="0.87"/>
<stop offset="0.94" stop-color="#FFD605" stop-opacity="0.96"/>
<stop offset="1" stop-color="#FFE302"/>
</linearGradient>
<linearGradient id="paint9_linear" x1="13.1414" y1="19.4042" x2="10.8887" y2="11.3056" gradientUnits="userSpaceOnUse">
<stop stop-color="#891551" stop-opacity="0.6"/>
<stop offset="1" stop-color="#C42482" stop-opacity="0"/>
</linearGradient>
<linearGradient id="paint10_linear" x1="17.5276" y1="30.6624" x2="22.168" y2="37.1447" gradientUnits="userSpaceOnUse">
<stop offset="0.01" stop-color="#891551" stop-opacity="0.5"/>
<stop offset="0.48" stop-color="#FF272D" stop-opacity="0.5"/>
<stop offset="1" stop-color="#FF272D" stop-opacity="0"/>
</linearGradient>
<linearGradient id="paint11_linear" x1="26.4004" y1="42.012" x2="26.8246" y2="37.8476" gradientUnits="userSpaceOnUse">
<stop stop-color="#C42482"/>
<stop offset="0.08" stop-color="#C42482" stop-opacity="0.8"/>
<stop offset="0.21" stop-color="#C42482" stop-opacity="0.57"/>
<stop offset="0.33" stop-color="#C42482" stop-opacity="0.36"/>
<stop offset="0.45" stop-color="#C42482" stop-opacity="0.2"/>
<stop offset="0.56" stop-color="#C42482" stop-opacity="0.1"/>
<stop offset="0.67" stop-color="#C42482" stop-opacity="0.02"/>
<stop offset="0.77" stop-color="#C42482" stop-opacity="0"/>
</linearGradient>
<linearGradient id="paint12_linear" x1="40.0312" y1="6.51178" x2="57.2276" y2="44.9649" gradientUnits="userSpaceOnUse">
<stop stop-color="#FFF14F"/>
<stop offset="0.27" stop-color="#FFEE4C"/>
<stop offset="0.45" stop-color="#FFE643"/>
<stop offset="0.61" stop-color="#FFD834"/>
<stop offset="0.76" stop-color="#FFC41E"/>
<stop offset="0.89" stop-color="#FFAB02"/>
<stop offset="0.9" stop-color="#FFA900"/>
<stop offset="0.95" stop-color="#FFA000"/>
<stop offset="1" stop-color="#FF9100"/>
</linearGradient>
<linearGradient id="paint13_linear" x1="43.4262" y1="28.6275" x2="35.2809" y2="50.4986" gradientUnits="userSpaceOnUse">
<stop stop-color="#FF8E00"/>
<stop offset="0.04" stop-color="#FF8E00" stop-opacity="0.86"/>
<stop offset="0.08" stop-color="#FF8E00" stop-opacity="0.73"/>
<stop offset="0.13" stop-color="#FF8E00" stop-opacity="0.63"/>
<stop offset="0.18" stop-color="#FF8E00" stop-opacity="0.56"/>
<stop offset="0.23" stop-color="#FF8E00" stop-opacity="0.5"/>
<stop offset="0.28" stop-color="#FF8E00" stop-opacity="0.5"/>
<stop offset="0.39" stop-color="#FF8E00" stop-opacity="0.48"/>
<stop offset="0.52" stop-color="#FF8E00" stop-opacity="0.42"/>
<stop offset="0.68" stop-color="#FF8E00" stop-opacity="0.3"/>
<stop offset="0.84" stop-color="#FF8E00" stop-opacity="0.17"/>
<stop offset="1" stop-color="#FF8E00" stop-opacity="0"/>
</linearGradient>
</defs>
</svg>
