<svg width="64" height="64" viewBox="0 0 64 64" fill="none" xmlns="http://www.w3.org/2000/svg">
<path d="M32.0012 4.8054C27.5924 4.8051 23.2496 5.87652 19.3469 7.92738C15.4441 9.97824 12.0984 12.9471 9.59792 16.5781C7.0974 20.2092 5.51704 24.3937 4.99293 28.7713C4.46882 33.1488 5.01669 37.5881 6.58934 41.7069C8.16199 45.8256 10.7123 49.5004 14.0206 52.4146C17.3288 55.3288 21.296 57.3951 25.5802 58.4356C29.8644 59.4761 34.3374 59.4595 38.6138 58.3874C42.8903 57.3152 46.842 55.2196 50.1286 52.281C46.9044 54.4451 43.1104 55.6037 39.2272 55.6098C32.7481 55.6098 26.951 52.3946 23.043 47.3283C20.0335 43.7775 18.0903 38.5325 17.955 32.6434V31.3551C18.0903 25.466 20.0335 20.2156 23.043 16.6702C26.9402 11.6039 32.7481 8.38867 39.2272 8.38867C43.2111 8.38867 46.9405 9.60654 50.1286 11.7229C45.1738 7.28118 38.7583 4.81708 32.104 4.79999H31.9958L32.0012 4.8054Z" fill="url(#paint0_linear)"/>
<path d="M23.048 16.6754C25.5379 13.7309 28.7693 11.9501 32.2876 11.9501C40.2065 11.9501 46.6315 20.9353 46.6315 31.999C46.6315 43.0736 40.212 52.048 32.2876 52.048C28.7693 52.048 25.5433 50.2726 23.048 47.3281C26.9452 52.3944 32.7477 55.6096 39.2322 55.6096C43.1151 55.6015 46.9086 54.4432 50.1336 52.2808C52.9904 49.7324 55.2753 46.6082 56.8379 43.1134C58.4006 39.6187 59.2056 35.8327 59.2 32.0045C59.2046 28.1759 58.3985 24.3898 56.835 20.895C55.2714 17.4003 52.9857 14.2762 50.1282 11.7282C46.904 9.56398 43.11 8.40544 39.2268 8.39929C32.7477 8.39929 26.9506 11.6145 23.0426 16.6809" fill="url(#paint1_linear)"/>
<defs>
<linearGradient id="paint0_linear" x1="27.4544" y1="5.69851" x2="27.4544" y2="58.4191" gradientUnits="userSpaceOnUse">
<stop offset="0.6" stop-color="#FF1B2D"/>
<stop offset="1" stop-color="#A70014"/>
</linearGradient>
<linearGradient id="paint1_linear" x1="41.1484" y1="8.7836" x2="41.1484" y2="55.4418" gradientUnits="userSpaceOnUse">
<stop stop-color="#9C0000"/>
<stop offset="0.7" stop-color="#FF4B4B"/>
</linearGradient>
</defs>
</svg>
