<svg width="64" height="64" viewBox="0 0 64 64" fill="none" xmlns="http://www.w3.org/2000/svg">
<path d="M32 59.2C47.0222 59.2 59.2001 47.0221 59.2001 32C59.2001 16.9778 47.0222 4.79999 32 4.79999C16.9779 4.79999 4.80005 16.9778 4.80005 32C4.80005 47.0221 16.9779 59.2 32 59.2Z" fill="url(#paint0_linear)"/>
<path d="M50.5772 13.3L29.6915 29.6928L34.5487 34.55L50.5772 13.3Z" fill="#FF0000"/>
<path d="M13.3 50.5772L29.6929 29.6915L34.55 34.5486L13.3 50.5772Z" fill="white"/>
<path d="M32.0014 7.47107V11.4782V7.47107ZM32.0014 52.3996V56.4068V52.3996ZM36.2514 7.83536L35.5593 11.7818L36.2514 7.83536ZM28.4436 52.0718L27.7514 56.0425L28.4436 52.0718ZM40.38 8.9525L39.0079 12.7168L40.38 8.9525ZM25.0071 51.1611L23.635 54.9254L25.0071 51.1611ZM27.7514 7.83536L28.4436 11.7818L27.7514 7.83536ZM35.5593 52.0718L36.2514 56.0425L35.5593 52.0718ZM23.6229 8.9525L24.995 12.7168L23.6229 8.9525ZM38.9836 51.1611L40.3557 54.9254L38.9836 51.1611ZM19.7614 10.7496L21.7771 14.2225L19.7614 10.7496ZM42.2379 49.6554L44.2414 53.1282L42.2379 49.6554ZM16.2764 13.1782L18.8507 16.2504L16.2764 13.1782ZM45.1521 47.6032L47.7264 50.6754L45.1521 47.6032ZM13.2407 16.1896L16.3129 18.7639L13.2407 16.1896ZM47.6657 45.0896L50.7379 47.6639L47.6657 45.0896ZM10.7879 19.7111L14.2607 21.7146L10.7879 19.7111ZM49.7179 42.1754L53.1907 44.1789L49.7179 42.1754ZM8.99071 23.5725L12.755 24.9446L8.99071 23.5725ZM51.1993 38.9089L54.9636 40.2811L51.1993 38.9089ZM7.88571 27.6525L11.8443 28.3568L7.88571 27.6525ZM52.1586 35.4968L56.105 36.1889L52.1586 35.4968ZM7.53357 31.9389H11.5407H7.53357ZM52.4621 31.9389H56.4693H52.4621ZM7.89786 36.1889L11.8443 35.4968L7.89786 36.1889ZM52.1586 28.3811L56.105 27.6889L52.1586 28.3811ZM9.02714 40.3175L12.7914 38.9454L9.02714 40.3175ZM51.2236 24.9568L54.9879 23.5846L51.2236 24.9568ZM10.8121 44.1789L14.285 42.1754L10.8121 44.1789ZM49.7421 21.7146L53.215 19.7111L49.7421 21.7146ZM13.2529 47.6639L16.325 45.0896L13.2529 47.6639ZM47.6536 18.7882L50.7257 16.2139L47.6536 18.7882ZM16.24 50.6996L18.8143 47.6275L16.24 50.6996ZM45.1157 16.2746L47.69 13.2025L45.1157 16.2746ZM19.7614 53.1282L21.7771 49.6554L19.7614 53.1282ZM42.2379 14.2225L44.2414 10.7496L42.2379 14.2225ZM29.8643 7.56821L30.0586 9.75393L29.8643 7.56821ZM33.9443 54.1482L34.1386 56.3339L33.9443 54.1482ZM25.6629 8.32107L26.2336 10.4339L25.6629 8.32107ZM37.7693 53.4682L38.34 55.5811L37.7693 53.4682ZM21.6557 9.77821L22.5786 11.7575L21.6557 9.77821ZM41.4 52.1446L42.335 54.1239L41.4 52.1446ZM17.9643 11.8911L19.215 13.6882L17.9643 11.8911ZM44.7879 50.1896L46.0386 51.9868L44.7879 50.1896ZM14.6979 14.6354L16.24 16.1775L14.6979 14.6354ZM47.7629 47.7004L49.305 49.2425L47.7629 47.7004ZM11.9657 17.9139L13.7629 19.1646L11.9657 17.9139ZM50.2643 44.7496L52.0371 45.9639L50.2643 44.7496ZM9.82857 21.5932L11.8079 22.5161L9.82857 21.5932ZM52.195 41.3375L54.1743 42.2725L52.195 41.3375ZM8.37143 25.6004L10.4843 26.1711L8.37143 25.6004ZM53.5186 37.7068L55.6314 38.2775L53.5186 37.7068ZM7.63071 29.8139L9.81643 30.0082L7.63071 29.8139ZM54.2107 33.8939L56.3964 34.0882L54.2107 33.8939ZM7.655 34.0882L9.84071 33.8939L7.655 34.0882ZM54.235 30.0082L56.4207 29.8139L54.235 30.0082ZM8.37143 38.2775L10.4843 37.7068L8.37143 38.2775ZM53.5186 26.1711L55.6314 25.6004L53.5186 26.1711ZM9.82857 42.2846L11.8079 41.3618L9.82857 42.2846ZM52.195 22.5404L54.1743 21.6175L52.195 22.5404ZM11.9657 45.9639L13.7629 44.7132L11.9657 45.9639ZM50.2643 19.1282L52.0371 17.9139L50.2643 19.1282ZM17.9643 51.9868L19.215 50.1896L17.9643 51.9868ZM44.7757 13.6882L46.0386 11.8911L44.7757 13.6882ZM21.6557 54.0996L22.5907 52.1204L21.6557 54.0996ZM41.4121 11.7211L42.3471 9.74178L41.4121 11.7211ZM25.6629 55.5568L26.2336 53.4439L25.6629 55.5568ZM37.7693 10.4096L38.34 8.29678L37.7693 10.4096ZM29.8643 56.2854L30.0586 54.0996L29.8643 56.2854ZM33.9443 9.70536L34.1386 7.51964L33.9443 9.70536Z" fill="black"/>
<path fill-rule="evenodd" clip-rule="evenodd" d="M32.1836 7.47107V11.4782H31.8193V7.47107H32.1836ZM34.32 7.53577L34.1257 9.72148L33.7629 9.68923L33.9571 7.50351L34.32 7.53577ZM29.8771 9.77005L29.6829 7.58434L30.0457 7.55209L30.24 9.7378L29.8771 9.77005ZM28.2642 11.8132L27.572 7.86682L27.9308 7.80389L28.623 11.7503L28.2642 11.8132ZM35.3799 11.7503L36.072 7.80389L36.4308 7.86682L35.7387 11.8132L35.3799 11.7503ZM37.5934 10.3621L38.1642 8.24929L38.5158 8.34428L37.9451 10.4571L37.5934 10.3621ZM26.0577 10.4814L25.487 8.36857L25.8387 8.27357L26.4094 10.3864L26.0577 10.4814ZM24.8239 12.7792L23.4517 9.01488L23.794 8.89012L25.1661 12.6544L24.8239 12.7792ZM38.8367 12.6544L40.2089 8.89012L40.5511 9.01488L39.179 12.7792L38.8367 12.6544ZM42.5118 9.81958L41.5768 11.7989L41.2474 11.6433L42.1824 9.66398L42.5118 9.81958ZM22.4135 11.8345L21.4906 9.85518L21.8208 9.70124L22.7436 11.6805L22.4135 11.8345ZM21.6196 14.3139L19.6039 10.8411L19.919 10.6582L21.9347 14.1311L21.6196 14.3139ZM44.3992 10.8407L42.3956 14.3135L42.0801 14.1315L44.0837 10.6586L44.3992 10.8407ZM46.1876 11.9958L44.9247 13.7929L44.6267 13.5835L45.8895 11.7863L46.1876 11.9958ZM19.0655 13.7923L17.8148 11.9951L18.1138 11.787L19.3645 13.5842L19.0655 13.7923ZM18.7111 16.3673L16.1368 13.2952L16.416 13.0612L18.9903 16.1334L18.7111 16.3673ZM47.8296 13.3195L45.2553 16.3916L44.9761 16.1577L47.5504 13.0855L47.8296 13.3195ZM14.8266 14.5066L16.3688 16.0487L16.1112 16.3063L14.5691 14.7642L14.8266 14.5066ZM16.1959 18.9035L13.1237 16.3292L13.3577 16.05L16.4298 18.6243L16.1959 18.9035ZM50.8427 16.3535L47.7706 18.9278L47.5366 18.6486L50.6087 16.0743L50.8427 16.3535ZM52.1401 18.0642L50.3672 19.2785L50.1614 18.9779L51.9342 17.7637L52.1401 18.0642ZM13.6588 19.3141L11.8617 18.0634L12.0698 17.7644L13.8669 19.0151L13.6588 19.3141ZM14.1697 21.8724L10.6968 19.8688L10.8789 19.5533L14.3517 21.5569L14.1697 21.8724ZM53.306 19.8688L49.8332 21.8724L49.6511 21.5569L53.124 19.5533L53.306 19.8688ZM11.7309 22.6812L9.7516 21.7583L9.90554 21.4281L11.8848 22.351L11.7309 22.6812ZM54.2513 21.7826L52.272 22.7054L52.118 22.3753L54.0973 21.4524L54.2513 21.7826ZM12.6926 25.1158L8.92833 23.7436L9.05309 23.4014L12.8174 24.7735L12.6926 25.1158ZM51.1612 24.7857L54.9255 23.4135L55.0502 23.7558L51.2859 25.1279L51.1612 24.7857ZM10.4368 26.3469L8.32393 25.7762L8.41892 25.4245L10.5318 25.9952L10.4368 26.3469ZM55.6789 25.7762L53.5661 26.3469L53.4711 25.9952L55.5839 25.4245L55.6789 25.7762ZM7.91762 27.4732L11.8762 28.1775L11.8124 28.5361L7.85381 27.8318L7.91762 27.4732ZM56.1365 27.8683L52.19 28.5605L52.1271 28.2017L56.0735 27.5095L56.1365 27.8683ZM9.8003 30.1896L7.61459 29.9954L7.64684 29.6325L9.83255 29.8268L9.8003 30.1896ZM56.4368 29.9954L54.2511 30.1896L54.2189 29.8268L56.4046 29.6325L56.4368 29.9954ZM7.53357 31.7568H11.5407V32.1211H7.53357V31.7568ZM52.4621 31.7568H56.4693V32.1211H52.4621V31.7568ZM9.85684 34.0754L7.67112 34.2696L7.63887 33.9068L9.82459 33.7125L9.85684 34.0754ZM56.3803 34.2696L54.1946 34.0754L54.2268 33.7125L56.4126 33.9068L56.3803 34.2696ZM7.86639 36.0095L11.8128 35.3174L11.8757 35.6762L7.92932 36.3683L7.86639 36.0095ZM52.19 35.3174L56.1365 36.0095L56.0735 36.3683L52.1271 35.6762L52.19 35.3174ZM10.5318 37.8826L8.41892 38.4533L8.32393 38.1017L10.4368 37.5309L10.5318 37.8826ZM55.5839 38.4533L53.4711 37.8826L53.5661 37.5309L55.6789 38.1017L55.5839 38.4533ZM54.9012 40.4522L51.1369 39.0801L51.2617 38.7378L55.0259 40.1099L54.9012 40.4522ZM12.8538 39.1165L9.08952 40.4886L8.96476 40.1464L12.729 38.7742L12.8538 39.1165ZM54.0965 42.4372L52.1172 41.5022L52.2728 41.1728L54.2521 42.1078L54.0965 42.4372ZM11.8848 41.5269L9.90554 42.4497L9.7516 42.1196L11.7309 41.1967L11.8848 41.5269ZM14.376 42.3331L10.9032 44.3367L10.7211 44.0212L14.194 42.0176L14.376 42.3331ZM53.0997 44.3367L49.6268 42.3331L49.8089 42.0176L53.2817 44.0212L53.0997 44.3367ZM13.8669 44.8627L12.0698 46.1134L11.8617 45.8144L13.6588 44.5637L13.8669 44.8627ZM51.9342 46.1142L50.1614 44.8999L50.3672 44.5994L52.1401 45.8137L51.9342 46.1142ZM13.1359 47.5243L16.208 44.95L16.442 45.2293L13.3698 47.8035L13.1359 47.5243ZM50.6209 47.8035L47.5487 45.2293L47.7827 44.95L50.8548 47.5243L50.6209 47.8035ZM47.5868 50.7923L45.0125 47.7202L45.2917 47.4862L47.866 50.5584L47.5868 50.7923ZM18.9539 47.7445L16.3796 50.8166L16.1004 50.5827L18.6747 47.5105L18.9539 47.7445ZM47.8916 47.5716L49.4338 49.1137L49.1762 49.3713L47.6341 47.8292L47.8916 47.5716ZM19.6039 53.0368L21.6196 49.5639L21.9347 49.7468L19.919 53.2196L19.6039 53.0368ZM44.0837 53.2192L42.0801 49.7464L42.3956 49.5643L44.3992 53.0372L44.0837 53.2192ZM19.3645 50.2937L18.1138 52.0908L17.8148 51.8827L19.0655 50.0856L19.3645 50.2937ZM45.8891 52.0908L44.6384 50.2937L44.9374 50.0856L46.1881 51.8827L45.8891 52.0908ZM23.4639 54.863L24.836 51.0987L25.1783 51.2234L23.8061 54.9877L23.4639 54.863ZM40.1846 54.9877L38.8124 51.2234L39.1547 51.0987L40.5268 54.863L40.1846 54.9877ZM27.572 56.0112L28.2641 52.0405L28.623 52.1031L27.9309 56.0738L27.572 56.0112ZM36.072 56.0738L35.3798 52.1031L35.7387 52.0405L36.4309 56.0112L36.072 56.0738ZM22.7554 52.1982L21.8204 54.1774L21.491 54.0218L22.426 52.0426L22.7554 52.1982ZM42.1703 54.2017L41.2353 52.2224L41.5647 52.0668L42.4997 54.0461L42.1703 54.2017ZM32.1836 52.3996V56.4068H31.8193V52.3996H32.1836ZM26.4094 53.4914L25.8387 55.6043L25.487 55.5093L26.0577 53.3964L26.4094 53.4914ZM38.1642 55.6286L37.5934 53.5157L37.9451 53.4207L38.5158 55.5336L38.1642 55.6286ZM30.24 54.1158L30.0457 56.3015L29.6829 56.2692L29.8771 54.0835L30.24 54.1158ZM33.9571 56.3501L33.7629 54.1643L34.1257 54.1321L34.32 56.3178L33.9571 56.3501Z" fill="white"/>
<defs>
<linearGradient id="paint0_linear" x1="4.80005" y1="4.79999" x2="4.80005" y2="59.2" gradientUnits="userSpaceOnUse">
<stop stop-color="#19D7FF"/>
<stop offset="1" stop-color="#1E64F0"/>
</linearGradient>
</defs>
</svg>
