<svg width="24" height="25" viewBox="0 0 24 25" fill="none" xmlns="http://www.w3.org/2000/svg">
<path d="M10.5592 11.324H23.2449V0.66521C23.2427 0.567814 23.2195 0.472044 23.1768 0.384445C23.1342 0.296847 23.0732 0.219485 22.9979 0.157647C22.921 0.0943383 22.8311 0.0487755 22.7346 0.0242095C22.6381 -0.000356564 22.5373 -0.00332033 22.4396 0.0155298L10.5592 2.27926V11.324Z" fill="#BCBCBC"/>
<path d="M9.20571 11.3241V2.52637L1.54828 4.00507C1.39187 4.03531 1.25114 4.11976 1.15087 4.24355C1.0506 4.36734 0.997215 4.52254 1.00011 4.68182V11.3241H9.20571Z" fill="#BCBCBC"/>
<path d="M10.5592 12.6775V21.7223L22.4396 23.9995C22.4823 24.0045 22.5254 24.0045 22.5681 23.9995C22.7476 23.9995 22.9198 23.9282 23.0467 23.8013C23.1736 23.6744 23.2449 23.5023 23.2449 23.3228V12.6775H10.5592Z" fill="#BCBCBC"/>
<path d="M9.20571 12.6775H1.00011V19.3299C0.997215 19.4892 1.0506 19.6444 1.15087 19.7682C1.25114 19.892 1.39187 19.9765 1.54828 20.0067L9.20571 21.4752V12.6775Z" fill="#BCBCBC"/>
</svg>
